<?xml version="1.0" standalone="no"?>
<!DOCTYPE svg PUBLIC "-//W3C//DTD SVG 20010904//EN"
 "http://www.w3.org/TR/2001/REC-SVG-20010904/DTD/svg10.dtd">
<svg version="1.0" xmlns="http://www.w3.org/2000/svg"
 width="225.000000pt" height="300.000000pt" viewBox="0 0 225.000000 300.000000"
 preserveAspectRatio="xMidYMid meet">
<metadata>
Created by potrace 1.16, written by Peter Selinger 2001-2019
</metadata>
<g transform="translate(0.000000,300.000000) scale(0.100000,-0.100000)"
fill="none" stroke="#000000">
<path d="M70 2870 c-10 -99 -11 -136 -2 -155 25 -54 7 -352 -23 -385 -10 -11
-21 -17 -26 -15 -9 6 5 61 21 80 6 7 12 49 12 92 2 97 -3 148 -12 133 -4 -7
-3 -31 2 -54 10 -44 2 -143 -13 -167 -5 -8 -6 19 -2 71 3 47 3 83 0 80 -3 -3
-8 -52 -11 -109 -4 -57 -9 -108 -13 -114 -8 -13 18 -28 40 -21 20 6 21 -4 3
-29 -14 -18 -14 -18 -19 0 -4 16 -5 15 -6 -3 0 -11 -6 -25 -13 -32 -7 -7 -8
-12 -2 -12 21 0 57 51 60 82 2 18 8 74 13 123 13 124 13 246 0 285 -9 24 -9
62 1 152 7 65 10 121 7 124 -2 3 -10 -54 -17 -126z"/>
<path d="M6 2903 c-3 -21 -5 -60 -5 -88 1 -38 4 -30 10 35 8 89 6 117 -5 53z"/>
<path d="M1188 2648 c0 -90 0 -338 2 -551 l3 -388 -43 -37 c-43 -37 -103 -66
-114 -55 -3 4 -6 116 -6 250 0 175 -3 243 -11 243 -12 0 -149 -107 -149 -116
0 -8 20 5 88 59 l62 49 0 -250 0 -250 -62 -52 c-35 -29 -65 -58 -68 -64 -3 -7
-31 -46 -63 -89 -33 -42 -57 -85 -55 -94 2 -10 39 -41 83 -70 44 -29 95 -63
114 -77 19 -15 39 -26 46 -26 8 0 10 -34 7 -117 -2 -65 0 -134 5 -153 7 -25 8
1 5 87 -3 71 0 134 6 152 7 21 7 31 0 33 -7 3 -4 14 7 31 10 15 15 30 12 33
-3 3 -10 -3 -16 -13 -27 -47 -26 -47 -82 -6 -30 22 -67 47 -84 56 -16 8 -46
29 -65 45 l-34 29 59 79 c33 43 62 83 65 90 7 15 149 134 161 134 5 0 26 7 47
17 20 9 40 15 44 15 5 -1 7 4 5 11 -1 7 11 13 28 15 16 2 42 15 58 28 16 13
36 24 45 24 9 0 37 11 61 25 23 14 45 25 47 25 2 0 4 -11 4 -25 0 -82 63 -133
148 -121 42 6 62 13 160 57 23 10 47 19 53 19 6 0 26 12 45 26 41 31 41 27 10
-54 -14 -34 -21 -60 -17 -57 10 5 52 120 50 132 -3 13 21 66 38 86 9 9 14 20
10 23 -3 3 -17 -15 -32 -40 -23 -40 -91 -106 -109 -106 -3 0 -25 -9 -49 -19
-73 -33 -157 -61 -183 -61 -75 0 -116 58 -115 162 1 72 -15 121 -43 131 -9 4
-37 38 -63 78 -89 134 -97 158 -68 203 14 21 14 28 -2 67 -12 30 -17 72 -18
134 0 102 19 153 88 231 57 65 124 94 216 94 93 0 140 -20 211 -86 27 -26 50
-42 50 -36 0 20 -101 100 -147 116 -61 21 -167 20 -229 -1 -59 -20 -138 -96
-174 -168 -22 -44 -25 -62 -24 -150 1 -69 6 -112 18 -139 15 -36 15 -40 0 -57
-20 -22 -13 -100 11 -133 9 -12 36 -52 60 -89 25 -37 52 -70 61 -74 21 -8 44
-56 44 -92 0 -24 -8 -34 -48 -59 -27 -16 -62 -33 -79 -36 -17 -4 -39 -16 -49
-27 -9 -10 -20 -19 -23 -19 -3 0 -5 254 -5 565 1 311 0 565 -2 565 -2 0 -5
-73 -6 -162z"/>
<path d="M552 2712 c-14 -4 -17 -88 -2 -97 11 -7 207 -45 232 -45 15 0 18 9
18 49 l0 50 -57 11 c-32 7 -85 17 -118 24 -33 7 -66 11 -73 8z m216 -47 c18
-4 22 -12 22 -45 0 -46 5 -45 -109 -25 -120 22 -131 28 -131 68 0 19 2 36 5
39 5 4 126 -17 213 -37z"/>
<path d="M1496 2695 c-21 -7 -43 -18 -49 -24 -6 -6 -26 -11 -44 -11 -19 0 -47
-7 -63 -15 -42 -22 -37 -27 7 -9 20 9 54 14 75 12 24 -2 38 1 38 8 0 14 71 44
105 44 42 0 79 -20 134 -73 78 -75 110 -157 113 -282 0 -30 3 -42 7 -31 10 25
-5 139 -25 200 -12 36 -35 70 -77 113 -78 82 -134 99 -221 68z"/>
<path d="M1486 2637 c11 -9 29 -35 39 -58 l19 -42 -22 -15 c-12 -8 -22 -24
-21 -36 0 -20 1 -20 10 3 6 15 15 21 24 17 11 -4 15 2 15 27 -1 41 -41 111
-66 115 -18 3 -18 3 2 -11z"/>
<path d="M406 2193 c-9 -439 -25 -1056 -31 -1172 -2 -52 -2 -91 1 -88 7 7 12
124 24 557 16 612 23 1030 18 1030 -3 0 -8 -147 -12 -327z"/>
<path d="M1513 2459 c-26 -8 -33 -15 -33 -35 0 -21 3 -25 18 -19 9 5 35 11 57
15 39 7 39 8 7 9 -18 0 -42 -4 -54 -10 -17 -9 -19 -8 -16 7 9 47 189 43 201
-4 4 -15 5 -15 6 0 2 40 -104 61 -186 37z"/>
<path d="M1622 2393 c-3 -47 1 -61 28 -101 26 -39 30 -54 26 -87 -4 -27 0 -48
10 -65 9 -15 12 -17 8 -5 -5 11 -7 39 -7 62 2 47 -17 102 -41 123 -18 14 -21
72 -6 100 7 13 6 19 -3 23 -8 3 -13 -12 -15 -50z"/>
<path d="M1280 2391 c-28 -28 -42 -81 -21 -81 4 0 6 11 4 24 -3 13 1 27 8 31
9 6 11 3 6 -9 -6 -14 -4 -15 16 -4 12 6 45 17 72 23 69 16 68 39 -3 43 -47 3
-56 0 -82 -27z m130 8 c0 -6 -8 -9 -17 -7 -10 2 -37 -4 -60 -13 -47 -20 -66
-10 -31 15 25 18 108 22 108 5z"/>
<path d="M1675 2386 c17 -13 32 -22 35 -19 7 6 -39 43 -54 43 -6 0 3 -11 19
-24z"/>
<path d="M1462 2341 c-2 -42 24 -120 40 -121 8 0 -8 48 -22 65 -5 6 -10 31
-13 55 l-4 45 -1 -44z"/>
<path d="M1491 2358 c-1 -20 8 -34 29 -50 36 -26 69 -116 48 -129 -8 -5 -6 -8
7 -7 11 1 36 -2 55 -5 l35 -7 -30 11 c-45 17 -53 26 -60 71 -5 28 -18 51 -40
72 -18 17 -35 40 -38 51 -4 15 -5 13 -6 -7z"/>
<path d="M1650 2370 c-13 -8 -12 -10 3 -10 9 0 17 5 17 10 0 12 -1 12 -20 0z"/>
<path d="M1853 2363 c15 -2 27 -8 27 -13 0 -4 -8 -6 -19 -3 -12 3 -20 -2 -24
-16 -3 -12 -2 -19 3 -16 4 3 11 -7 14 -21 4 -15 9 -24 11 -22 3 2 1 19 -4 36
-6 18 -6 32 -1 32 12 0 24 -66 14 -81 -5 -8 -3 -10 6 -4 8 5 10 21 6 49 -5 33
-4 37 5 22 15 -24 6 -86 -17 -120 -15 -23 -19 -25 -26 -12 -5 9 -5 23 0 33 14
26 -3 63 -28 63 -18 0 -21 -5 -18 -31 2 -16 8 -33 13 -37 16 -11 36 -52 30
-61 -3 -5 -13 -7 -24 -4 -15 4 -20 -3 -25 -40 -7 -47 6 -153 23 -185 19 -36
43 -46 145 -57 80 -9 111 -17 136 -35 23 -17 45 -23 76 -22 23 1 46 -2 49 -8
3 -5 11 -10 17 -10 6 0 5 6 -3 16 -8 10 -25 14 -48 13 -23 -2 -56 7 -91 23
-38 19 -80 29 -135 33 -88 8 -117 21 -138 63 -30 58 -32 210 -2 199 20 -8 40
14 70 80 19 41 19 76 0 113 -12 23 -22 30 -43 29 l-27 -2 28 -4z m-14 -102
c11 -19 6 -31 -13 -31 -7 0 -13 11 -14 25 -2 29 13 33 27 6z"/>
<path d="M1510 2205 c-10 -12 -10 -19 -3 -23 6 -4 13 -18 14 -32 4 -22 0 -25
-33 -28 -20 -2 -42 -11 -50 -20 -11 -15 -11 -15 2 -5 10 8 50 10 120 8 103 -4
105 -4 112 -30 4 -15 4 -34 1 -43 -4 -13 -3 -14 6 -6 8 7 9 23 3 50 -7 36 -11
39 -42 39 -19 0 -35 6 -38 14 -3 10 2 11 18 6 14 -4 20 -3 16 3 -3 5 -15 12
-27 15 -18 5 -20 2 -16 -19 4 -21 1 -24 -28 -24 -30 0 -33 3 -32 28 1 15 8 33
15 41 7 7 11 18 9 25 -6 18 -33 18 -47 1z m29 -12 c0 -5 -3 -9 -9 -11 -5 -2
-10 4 -10 13 0 16 16 14 19 -2z"/>
<path d="M1481 2197 c-1 -15 -4 -15 -21 -5 -31 19 -46 -2 -32 -44 l11 -33 -4
32 c-4 43 2 46 44 21 20 -12 31 -16 25 -8 -7 8 -14 24 -17 35 -4 16 -5 17 -6
2z"/>
<path d="M1546 2064 c-7 -17 5 -44 28 -64 23 -19 19 0 -5 26 -26 28 -18 44 23
44 21 0 31 -6 35 -20 6 -22 23 -27 23 -7 0 23 -23 37 -61 37 -24 0 -39 -5 -43
-16z"/>
<path d="M1914 1790 c-6 -74 -8 -81 -27 -78 -17 2 -24 -6 -37 -43 -10 -25 -32
-67 -49 -93 -18 -26 -31 -49 -28 -52 8 -8 77 101 88 139 8 31 14 37 37 37 l27
0 2 85 c1 47 0 85 -2 85 -2 0 -7 -36 -11 -80z"/>
<path d="M1948 1863 c-2 -5 -1 -35 3 -68 l6 -60 1 68 c2 61 -1 80 -10 60z"/>
<path d="M1832 1815 c-17 -27 -28 -35 -50 -35 -19 0 -37 -10 -53 -27 l-24 -28
26 23 c14 12 37 22 51 22 28 0 50 17 69 52 19 35 2 30 -19 -7z"/>
<path d="M1978 1793 c-3 -32 -9 -67 -13 -78 -6 -16 -5 -18 5 -8 7 7 15 38 18
70 3 32 10 61 16 65 7 5 5 8 -5 8 -13 0 -18 -13 -21 -57z"/>
<path d="M2026 1828 c2 -13 2 -17 -2 -10 -3 6 -10 12 -16 12 -6 0 -5 -6 2 -15
9 -11 11 -33 6 -75 -9 -78 6 -134 45 -162 20 -15 33 -37 41 -65 6 -24 15 -46
21 -50 6 -4 8 0 4 10 -3 9 -11 34 -17 55 -6 24 -21 47 -36 57 -52 34 -61 92
-37 233 3 19 1 32 -5 32 -6 0 -8 -10 -6 -22z"/>
<path d="M2128 1793 c-10 -2 -18 -11 -18 -19 0 -8 -7 -17 -15 -20 -8 -4 -15
-10 -15 -15 0 -6 -10 -23 -22 -39 -21 -29 -21 -31 -5 -64 9 -19 25 -40 37 -46
19 -10 20 -8 20 40 0 28 7 66 14 85 8 19 12 35 7 35 -12 0 -31 -64 -31 -108 0
-50 -9 -53 -34 -11 -18 30 -18 32 3 60 11 15 21 31 21 34 0 7 17 28 44 55 11
11 18 19 15 19 -2 -1 -12 -3 -21 -6z"/>
<path d="M2172 1709 c-41 -50 -42 -54 -42 -124 0 -64 26 -182 37 -171 3 2 -3
25 -11 50 -9 26 -16 80 -16 120 0 73 1 74 38 107 20 18 36 34 35 36 -9 10 0
22 20 26 20 4 20 4 1 6 -14 1 -34 -16 -62 -50z"/>
<path d="M2227 1721 c-3 -11 1 -22 8 -24 8 -4 10 3 7 19 -5 29 -8 30 -15 5z"/>
<path d="M441 1686 c-17 -20 -10 -81 9 -81 10 0 16 12 18 39 4 44 -9 64 -27
42z m19 -35 c0 -17 -4 -33 -10 -36 -6 -4 -10 8 -10 29 0 20 5 36 10 36 6 0 10
-13 10 -29z"/>
<path d="M490 1644 c0 -59 24 -55 28 4 2 33 0 42 -12 42 -12 0 -16 -11 -16
-46z m17 -16 c-2 -13 -4 -5 -4 17 -1 22 1 32 4 23 2 -10 2 -28 0 -40z"/>
<path d="M2216 1578 c-21 -51 -28 -91 -16 -83 5 3 10 16 10 28 0 12 9 37 20
55 11 17 15 32 9 32 -5 0 -16 -15 -23 -32z"/>
<path d="M2060 1512 c0 -4 14 -30 30 -56 17 -26 28 -52 24 -57 -7 -13 10 -84
39 -156 20 -52 17 -89 -7 -80 -11 5 -12 0 -2 -24 9 -24 8 -32 -4 -39 -17 -10
-40 -83 -40 -127 0 -25 -4 -33 -17 -33 -15 0 -122 -21 -256 -49 -37 -8 -40 -7
-59 25 -11 19 -24 34 -28 34 -5 0 -17 3 -27 6 -10 3 -3 -3 15 -15 17 -11 32
-27 32 -34 0 -7 11 -23 25 -35 28 -25 43 -29 25 -8 -9 12 -5 16 27 21 21 3 84
15 141 26 57 11 110 18 118 15 11 -4 14 4 14 32 0 51 18 115 37 129 10 7 14
22 11 37 -3 15 0 27 8 30 18 7 18 38 -2 84 -16 38 -44 135 -44 154 0 6 6 5 16
-3 12 -10 11 -5 -4 21 -58 103 -72 123 -72 102z"/>
<path d="M1904 1334 c22 -8 47 -21 57 -30 9 -8 37 -21 61 -29 23 -7 52 -16 63
-20 14 -4 12 -2 -5 9 -14 8 -32 15 -40 16 -19 0 -100 51 -95 59 1 3 -16 7 -39
7 l-41 2 39 -14z"/>
<path d="M1920 1291 c8 -6 40 -20 70 -31 30 -12 82 -35 114 -52 32 -17 56 -26
52 -19 -10 15 -79 50 -151 76 -33 12 -69 25 -80 29 -16 6 -17 6 -5 -3z"/>
<path d="M1062 1238 c-8 -11 -9 -17 -2 -20 6 -2 15 -32 21 -68 5 -36 16 -77
24 -93 8 -15 11 -42 8 -60 -4 -24 0 -37 16 -51 12 -11 21 -14 21 -9 0 6 -7 16
-16 24 -11 9 -14 22 -10 42 3 16 0 40 -9 57 -8 16 -20 65 -27 111 -11 69 -15
80 -26 67z"/>
<path d="M1913 1237 c10 -9 42 -18 70 -22 29 -4 61 -12 72 -18 23 -13 57 -18
50 -7 -5 7 -59 24 -125 38 -25 5 -54 13 -65 16 -19 7 -19 7 -2 -7z"/>
<path d="M694 1223 c-239 -215 -279 -261 -316 -367 -22 -63 -22 -65 -5 -120
13 -41 15 -61 7 -75 -5 -11 -10 -31 -10 -44 0 -14 -7 -28 -15 -31 -9 -3 -89
-13 -178 -23 -89 -9 -166 -20 -170 -23 -5 -4 2 -6 15 -4 13 2 93 11 178 20 85
9 161 21 168 26 6 6 12 21 12 35 0 13 5 33 11 44 8 15 6 33 -6 70 -35 104 20
208 191 364 97 88 152 145 141 145 -2 0 -12 -8 -23 -17z"/>
<path d="M5 980 c0 -15 3 -26 8 -23 9 6 9 40 0 46 -5 3 -8 -8 -8 -23z"/>
<path d="M530 990 c-14 -11 -20 -20 -14 -20 6 0 17 7 24 15 27 33 68 18 136
-48 35 -35 64 -58 64 -51 0 7 -27 37 -61 68 -67 62 -104 71 -149 36z"/>
<path d="M1716 880 c4 -8 14 -23 22 -32 18 -21 12 -24 -71 -31 -63 -6 -61 -8
-39 52 3 9 1 12 -6 7 -7 -4 -15 -25 -18 -47 -5 -31 -11 -39 -28 -40 -11 0 -64
-2 -117 -4 -125 -4 -240 -15 -260 -26 -12 -6 -20 2 -38 38 -22 45 -22 46 -2
40 12 -3 21 -1 21 4 0 5 -13 9 -30 9 -34 0 -37 -5 -15 -26 8 -9 18 -27 22 -42
9 -39 28 -55 42 -38 13 16 99 25 280 31 77 3 127 9 131 16 6 9 102 25 202 32
16 1 28 5 28 8 0 6 33 17 119 39 23 6 41 13 39 16 -4 3 -110 -23 -190 -47 -34
-11 -38 -10 -68 22 -17 19 -28 27 -24 19z"/>
<path d="M865 860 c-54 -22 -96 -25 -111 -11 -12 13 -66 22 -59 10 4 -5 14 -9
23 -9 9 0 26 -7 36 -15 11 -9 29 -12 43 -9 25 7 63 -18 63 -41 0 -7 11 -20 25
-29 47 -31 163 -228 167 -285 3 -35 13 -40 28 -12 15 29 12 39 -5 17 -14 -19
-15 -19 -15 8 0 23 4 27 23 24 16 -2 21 -9 19 -25 -3 -18 2 -23 20 -23 13 0
32 7 42 15 24 18 4 20 -24 3 -10 -7 -23 -9 -27 -5 -4 5 -1 12 6 16 10 7 9 11
-6 22 -10 8 -24 33 -31 55 -23 77 -54 137 -97 183 -23 25 -45 53 -48 61 -4 11
-6 10 -6 -4 -1 -10 20 -41 45 -68 68 -73 129 -218 91 -218 -9 0 -19 10 -23 22
-4 13 -18 41 -32 63 -78 123 -96 147 -118 161 -13 9 -24 23 -24 30 0 8 -7 17
-15 20 -23 9 -18 23 13 35 68 26 76 24 148 -39 58 -50 76 -74 112 -148 24 -49
50 -100 57 -114 15 -28 39 -42 475 -275 301 -160 318 -168 390 -176 117 -13
130 -12 130 9 0 30 -31 50 -85 56 l-50 5 46 -12 c47 -12 79 -32 79 -49 0 -5
-35 -6 -87 -2 l-88 6 -210 113 c-115 62 -289 154 -385 205 -96 51 -180 97
-187 102 -6 5 -36 60 -66 122 -49 101 -62 119 -121 169 -39 33 -76 57 -89 57
-12 -1 -44 -10 -72 -20z"/>
<path d="M998 767 c30 -30 67 -83 86 -122 19 -39 35 -64 35 -57 3 45 -129 232
-163 232 -6 0 13 -24 42 -53z"/>
<path d="M754 765 c-4 -9 9 -32 33 -58 59 -64 93 -112 93 -130 0 -10 4 -17 9
-17 27 0 -17 75 -92 157 -25 27 -34 44 -27 48 14 8 10 12 90 -84 40 -49 60
-81 57 -93 -3 -10 -1 -18 4 -18 5 0 13 -10 18 -22 5 -13 10 -17 14 -11 4 6 1
17 -6 25 -8 7 -17 26 -21 43 -7 26 -87 131 -125 163 -20 16 -40 15 -47 -3z"/>
<path d="M574 677 c15 -19 26 -41 26 -50 0 -42 47 -93 67 -73 4 3 -1 6 -10 6
-19 0 -47 48 -47 79 0 21 -37 71 -52 71 -5 0 2 -15 16 -33z"/>
<path d="M976 697 c3 -10 9 -15 12 -12 3 3 0 11 -7 18 -10 9 -11 8 -5 -6z"/>
<path d="M721 676 c-1 -10 24 -47 54 -81 30 -35 55 -65 55 -68 0 -3 -7 -8 -16
-11 -25 -10 -85 16 -116 49 -33 36 -37 21 -5 -15 38 -44 147 -62 147 -24 0 7
-24 41 -53 76 -30 35 -56 70 -60 78 -4 11 -6 10 -6 -4z"/>
<path d="M691 675 c0 -5 9 -26 19 -45 11 -19 26 -48 33 -64 8 -16 17 -24 20
-18 4 5 -4 26 -18 46 -13 20 -31 48 -39 63 -8 16 -15 24 -15 18z"/>
<path d="M1131 573 c-1 -32 33 -82 47 -69 3 4 -2 12 -12 19 -10 7 -21 29 -26
47 l-8 35 -1 -32z"/>
<path d="M1670 591 c-79 -6 -85 -8 -88 -29 -2 -14 -9 -22 -16 -19 -9 4 -11 -3
-7 -21 3 -19 6 -22 9 -9 6 30 18 19 31 -30 26 -100 26 -103 -2 -103 -37 0 -42
16 -10 29 l28 11 -29 -5 c-15 -3 -35 -12 -42 -20 -12 -11 -9 -14 15 -20 16 -3
49 -3 73 0 23 4 63 8 88 10 26 1 55 7 65 12 39 21 124 45 135 38 5 -3 10 -1
10 6 0 7 -9 9 -27 5 -72 -16 -121 -32 -135 -43 -8 -7 -23 -10 -34 -7 -11 3
-38 1 -62 -4 -33 -8 -42 -7 -42 3 0 9 20 16 58 20 74 8 86 15 93 58 5 32 4 34
-15 28 -26 -10 -51 -47 -37 -56 6 -3 11 0 11 8 0 8 7 20 15 27 12 10 15 9 15
-8 0 -29 -18 -39 -82 -46 -57 -7 -58 -7 -69 21 -6 15 -12 42 -13 58 -1 28 2
30 44 36 l45 7 -52 -3 c-45 -1 -53 1 -53 17 0 16 9 18 73 19 39 0 90 4 112 8
47 10 28 10 -105 2z"/>
<path d="M972 555 c0 -16 2 -22 5 -12 2 9 2 23 0 30 -3 6 -5 -1 -5 -18z"/>
<path d="M860 540 c0 -5 14 -17 31 -26 58 -30 22 -36 -167 -30 -99 3 -207 9
-241 13 -35 5 -59 6 -55 2 12 -11 105 -19 304 -25 182 -6 187 -5 198 15 11 22
63 30 75 11 3 -5 12 -10 18 -10 7 0 3 8 -8 16 -13 10 -33 14 -57 11 -25 -3
-46 1 -67 14 -17 10 -31 14 -31 9z"/>
<path d="M2190 533 c0 -15 -38 -17 -74 -3 -14 5 -26 7 -26 4 0 -2 10 -8 23
-13 20 -8 17 -11 -35 -37 -32 -15 -59 -33 -62 -40 -2 -6 27 6 66 27 39 22 80
39 92 39 12 0 26 4 32 9 5 5 18 11 29 13 14 3 11 6 -12 9 -23 4 -33 2 -33 -8z"/>
<path d="M970 480 c34 -11 60 -11 35 0 -11 5 -29 8 -40 8 -16 0 -15 -2 5 -8z"/>
<path d="M347 467 c2 -4 19 -5 36 -2 29 5 39 -1 99 -55 37 -33 68 -70 70 -83
4 -27 38 -37 38 -10 0 15 -2 16 -10 3 -5 -8 -10 -13 -11 -10 0 3 -2 14 -4 25
-2 11 -34 48 -72 83 -63 58 -71 62 -109 60 -23 -2 -40 -7 -37 -11z"/>
<path d="M960 460 c8 -5 28 -10 44 -10 39 0 30 6 -19 13 -27 4 -35 3 -25 -3z"/>
<path d="M1054 422 c3 -5 79 -49 170 -98 91 -49 164 -93 162 -99 -1 -5 -230
-55 -509 -110 -279 -55 -507 -103 -507 -106 0 -3 221 38 492 93 270 54 499 98
509 98 10 0 23 8 28 19 9 17 -8 29 -165 115 -97 53 -178 96 -181 96 -2 0 -2
-4 1 -8z"/>
<path d="M2080 386 c-5 -13 -13 -27 -19 -30 -6 -4 -16 -24 -22 -46 -7 -22 -23
-49 -35 -61 -24 -22 -33 -69 -14 -69 5 0 7 7 4 15 -3 8 5 28 19 45 14 16 28
43 32 59 3 16 13 35 20 41 20 16 46 70 34 70 -5 0 -14 -11 -19 -24z"/>
<path d="M2010 330 c0 -5 -16 -28 -36 -50 -20 -22 -35 -43 -32 -46 8 -7 78 74
78 91 0 8 -2 15 -5 15 -3 0 -5 -4 -5 -10z"/>
<path d="M45 306 l50 -13 -50 -8 c-28 -5 -42 -11 -33 -13 9 -2 33 1 52 6 l35
10 32 -56 c73 -128 109 -202 99 -202 -6 0 -13 7 -16 15 -8 19 -31 19 -41 1 -4
-8 -19 -17 -33 -21 -22 -5 -27 -1 -37 26 -7 18 -15 30 -19 27 -3 -4 0 -16 6
-28 6 -12 9 -28 6 -35 -4 -11 3 -11 42 1 26 7 56 14 67 13 l20 0 -20 -10 c-17
-8 -17 -9 5 -4 14 3 45 7 71 10 25 2 70 11 100 18 29 8 97 22 149 32 127 22
139 28 133 58 -7 36 14 43 42 13 24 -26 68 -35 80 -16 8 13 -4 50 -16 50 -5 0
-29 18 -52 40 -23 23 -52 43 -64 46 -12 3 -25 15 -29 26 -4 14 -9 17 -16 10
-17 -17 -2 -39 31 -45 17 -4 48 -24 70 -47 21 -22 43 -40 49 -40 12 0 23 -26
15 -34 -12 -12 -33 -5 -59 19 -15 14 -30 25 -33 25 -17 -1 -30 -18 -33 -45 -3
-29 -6 -30 -73 -41 -38 -6 -104 -19 -145 -29 -185 -42 -173 -45 -216 38 -20
39 -108 191 -118 204 0 0 -23 4 -51 7 l-50 6 50 -14z"/>
<path d="M55 200 c-27 -7 -28 -8 -5 -8 14 0 34 3 45 8 25 11 2 11 -40 0z"/>
<path d="M2143 183 c9 -2 23 -2 30 0 6 3 -1 5 -18 5 -16 0 -22 -2 -12 -5z"/>
<path d="M230 160 l-35 -7 40 -1 c22 0 49 3 60 8 18 8 18 9 -5 8 -14 0 -41 -4
-60 -8z"/>
<path d="M990 94 c-168 -36 -322 -67 -342 -71 -21 -3 -35 -9 -33 -14 3 -4 20
-3 38 2 17 5 174 39 347 75 279 58 356 76 309 73 -8 0 -151 -30 -319 -65z"/>
<path d="M1320 139 c-17 -10 -533 -119 -565 -119 -16 0 -17 -2 -6 -9 8 -5 24
-6 35 -2 12 5 138 32 281 61 143 30 264 57 269 62 14 12 3 17 -14 7z"/>
<path d="M1961 146 c2 -2 33 -6 69 -9 39 -3 55 -2 40 3 -25 8 -117 13 -109 6z"/>
<path d="M256 132 c-9 -15 11 -34 31 -28 27 9 25 36 -3 36 -13 0 -25 -4 -28
-8z m34 -12 c0 -5 -4 -10 -9 -10 -6 0 -13 5 -16 10 -3 6 1 10 9 10 9 0 16 -4
16 -10z"/>
<path d="M0 56 c0 -2 7 -6 15 -10 8 -3 15 -1 15 4 0 6 -7 10 -15 10 -8 0 -15
-2 -15 -4z"/>
</g>
</svg>
