<?xml version="1.0" standalone="no"?>
<!DOCTYPE svg PUBLIC "-//W3C//DTD SVG 20010904//EN"
 "http://www.w3.org/TR/2001/REC-SVG-20010904/DTD/svg10.dtd">
<svg version="1.0" xmlns="http://www.w3.org/2000/svg"
 width="512.000000pt" height="512.000000pt" viewBox="0 0 512.000000 512.000000"
 preserveAspectRatio="xMidYMid meet">
<metadata>
Created by potrace 1.16, written by Peter Selinger 2001-2019
</metadata>
<g transform="translate(0.000000,512.000000) scale(0.100000,-0.100000)"
fill="none" stroke="#000000">
<path d="M1890 4801 c-445 -6 -487 -8 -512 -25 -29 -19 -53 -86 -102 -275
l-21 -84 -320 6 c-352 6 -722 -4 -801 -22 -50 -12 -134 -70 -134 -93 0 -6 18
6 41 26 22 20 50 41 63 45 70 27 200 34 670 35 l489 1 48 164 c36 126 52 168
70 182 35 26 191 30 1308 32 l1003 2 27 -32 c15 -18 36 -56 48 -85 24 -64 73
-231 73 -252 0 -14 22 -16 158 -16 221 0 681 -18 780 -31 152 -19 256 -75 303
-163 13 -25 28 -46 32 -46 5 0 -4 23 -20 51 -51 94 -150 149 -305 168 -99 13
-559 31 -780 31 -134 0 -158 2 -158 15 0 27 -62 229 -86 281 -46 98 24 89
-728 90 -363 1 -879 -2 -1146 -5z"/>
<path d="M1933 4533 l-352 -3 -15 -54 c-9 -30 -16 -57 -16 -60 0 -3 454 -5
1010 -4 555 1 1008 4 1005 7 -3 2 -455 4 -1004 3 l-999 -2 14 47 c8 25 15 48
17 49 2 2 435 7 964 10 l960 7 18 -52 c9 -29 19 -50 22 -47 3 2 -3 27 -12 55
l-17 51 -621 -2 c-342 -2 -780 -4 -974 -5z"/>
<path d="M835 4131 c-269 -4 -501 -10 -515 -15 -36 -13 -61 -36 -79 -76 -14
-31 -16 -152 -19 -1190 -1 -635 1 -1353 6 -1595 8 -411 10 -443 29 -485 43
-97 109 -133 273 -151 134 -15 4217 -13 4257 2 45 17 71 47 85 103 19 75 18
3112 -1 3201 -22 102 -58 140 -166 177 -66 23 -2758 43 -3870 29z m3335 -20
c276 -5 508 -13 525 -18 106 -35 144 -76 166 -178 19 -89 20 -3106 1 -3181
-14 -55 -40 -86 -85 -103 -40 -15 -4103 -17 -4237 -2 -164 18 -230 54 -274
151 -18 42 -20 73 -27 405 -12 569 -11 2734 1 2796 6 30 18 65 28 79 41 55 38
55 572 61 614 7 2664 1 3330 -10z"/>
<path d="M735 3949 c-205 -30 -346 -141 -392 -309 -17 -60 -18 -136 -18 -1060
0 -916 1 -1001 18 -1070 35 -152 112 -234 247 -264 69 -15 411 -29 1130 -46
572 -14 1886 -13 1952 1 143 31 250 127 297 267 20 59 21 82 23 1124 3 1042 3
1064 -17 1117 -44 119 -157 200 -306 221 -180 24 -2782 41 -2934 19z m2225 -9
c344 -6 658 -15 699 -20 149 -21 262 -102 306 -221 20 -53 20 -75 17 -1107 -2
-1032 -3 -1055 -23 -1115 -47 -139 -154 -235 -297 -266 -66 -14 -1360 -15
-1932 -1 -726 17 -1062 31 -1130 46 -133 30 -209 109 -247 258 -17 66 -18 137
-18 1061 0 919 1 995 18 1055 46 168 187 279 392 309 86 12 1478 13 2215 1z"/>
<path d="M782 3690 c-100 -21 -185 -93 -214 -179 -16 -49 -24 -1616 -9 -1781
18 -194 62 -252 208 -271 38 -4 671 -8 1409 -9 1510 0 1409 -5 1489 75 81 81
78 36 79 1060 1 969 2 953 -51 1016 -36 42 -78 58 -165 64 -40 3 -505 9 -1033
15 -528 5 -1120 12 -1315 14 -195 3 -374 1 -398 -4z m1698 -20 c531 -6 998
-12 1038 -15 87 -6 129 -22 165 -64 53 -63 52 -47 51 -1011 -1 -1015 3 -964
-79 -1046 -79 -79 18 -74 -1479 -74 -732 1 -1361 5 -1399 9 -143 19 -189 77
-208 262 -15 154 -7 1721 9 1770 29 87 114 158 214 179 24 5 196 7 383 4 187
-2 774 -9 1305 -14z"/>
<path d="M2332 3483 c-14 -12 -51 -113 -116 -313 -146 -453 -227 -722 -223
-740 2 -8 8 5 14 30 13 50 100 333 167 540 133 411 150 456 168 473 15 12 37
17 87 17 71 0 83 -4 98 -35 6 -11 61 -227 123 -480 61 -253 116 -471 121 -484
l10 -25 25 27 c13 15 35 29 47 31 94 20 704 9 745 -13 26 -14 36 -47 36 -123
1 -65 -17 -93 -68 -104 -17 -4 -148 -10 -291 -13 l-260 -6 -50 -150 c-28 -82
-59 -178 -69 -213 -24 -88 -42 -102 -133 -102 -58 0 -77 4 -92 19 -12 12 -33
78 -60 192 -50 208 -164 708 -182 799 -7 36 -15 58 -17 49 -3 -18 47 -254 144
-669 81 -346 90 -377 114 -390 10 -5 54 -10 97 -10 97 0 114 13 139 102 10 35
41 131 69 213 l50 150 260 6 c143 3 274 9 291 13 53 12 69 39 68 115 -1 86 -9
118 -36 132 -49 26 -714 32 -779 7 -15 -5 -31 -19 -36 -31 -10 -20 -11 -20
-17 13 -9 39 -210 861 -226 921 -17 61 -31 69 -120 69 -60 0 -83 -4 -98 -17z"/>
<path d="M1270 3461 c-34 -11 -91 -40 -112 -58 -15 -13 -20 -12 -50 10 -48 36
-91 47 -179 47 -115 0 -159 -23 -202 -105 -30 -57 -36 -222 -12 -312 23 -85
94 -191 185 -277 89 -84 134 -105 218 -106 79 0 112 14 210 88 109 83 184 168
229 259 35 71 38 84 41 182 2 60 -1 125 -7 148 -14 52 -55 101 -98 119 -35 15
-180 18 -223 5z m213 -15 c43 -18 84 -67 98 -119 6 -23 9 -85 7 -138 -3 -87
-7 -103 -41 -173 -45 -90 -120 -175 -229 -258 -95 -72 -132 -88 -200 -88 -73
1 -123 26 -208 106 -91 86 -162 192 -185 277 -24 88 -18 235 12 292 42 80 87
105 192 105 81 0 123 -13 173 -51 35 -28 36 -28 60 -10 28 22 84 51 118 62 42
13 169 10 203 -5z"/>
<path d="M1633 2928 c-14 -15 -50 -121 -104 -299 l-82 -276 -266 -7 c-357 -9
-520 -22 -543 -43 -14 -12 -18 -31 -18 -78 0 -83 12 -97 91 -106 107 -12 862
-33 902 -25 22 4 43 16 52 30 17 26 56 156 54 183 -1 18 -8 -2 -31 -93 -19
-73 -41 -102 -85 -110 -41 -8 -768 13 -877 25 -82 9 -96 23 -96 96 0 37 5 57
18 68 23 21 184 33 540 43 228 6 264 9 271 23 5 9 43 133 86 276 49 166 84
268 98 283 17 18 31 22 87 22 39 0 74 -5 84 -13 16 -12 60 -155 137 -446 19
-73 29 -99 29 -70 -1 8 -32 126 -69 263 -47 170 -75 254 -87 263 -11 8 -47 13
-94 13 -67 0 -79 -3 -97 -22z"/>
<path d="M2376 2793 c-23 -83 -233 -730 -246 -758 -5 -11 -23 -58 -40 -105
-17 -47 -38 -91 -47 -97 -9 -7 -45 -13 -79 -13 -73 0 -89 14 -124 108 -17 45
-79 278 -103 387 -4 17 -5 17 -6 -3 -1 -31 71 -321 98 -394 12 -31 31 -68 42
-82 19 -24 27 -26 93 -26 42 0 79 5 89 13 19 14 83 187 190 512 116 353 159
494 155 511 -2 9 -12 -15 -22 -53z"/>
<path d="M4280 3724 c-154 -49 -227 -186 -218 -409 8 -182 59 -275 183 -336
62 -30 67 -31 177 -27 127 4 172 20 241 87 49 46 75 96 93 180 52 248 -32 454
-208 506 -64 19 -207 19 -268 -1z m258 -9 c173 -52 258 -250 208 -486 -18 -84
-44 -134 -93 -180 -67 -64 -115 -82 -231 -87 -99 -4 -105 -3 -167 27 -121 60
-174 154 -183 326 -8 166 34 282 126 350 26 19 67 41 92 49 60 19 184 20 248
1z"/>
<path d="M4162 2500 c-40 -4 -84 -15 -97 -24 -23 -15 -25 -23 -25 -85 0 -53 4
-71 18 -84 33 -30 123 -38 376 -35 294 4 286 0 286 113 0 64 -3 74 -26 96 -25
24 -28 24 -242 26 -119 0 -250 -3 -290 -7z m522 -29 c23 -21 26 -33 26 -86 0
-101 3 -99 -276 -103 -243 -3 -334 5 -366 35 -13 12 -18 31 -18 74 0 51 3 61
25 75 36 24 144 32 377 31 204 -2 207 -2 232 -26z"/>
<path d="M4115 1961 c-69 -17 -75 -26 -75 -100 0 -54 4 -71 19 -85 29 -26 124
-36 354 -39 291 -3 307 4 307 126 0 105 9 102 -309 104 -146 1 -279 -2 -296
-6z m574 -25 c16 -15 21 -31 21 -73 0 -110 -22 -119 -298 -116 -222 3 -315 13
-343 39 -14 13 -19 31 -19 75 0 93 18 98 361 96 237 -2 259 -3 278 -21z"/>
<path d="M4135 1435 c-5 -2 -22 -6 -38 -9 -48 -11 -67 -39 -67 -101 0 -106 34
-117 377 -119 241 -1 253 0 280 20 25 19 28 27 31 91 2 57 -1 74 -17 94 l-19
24 -269 2 c-147 1 -272 0 -278 -2z m556 -34 c16 -19 19 -37 17 -84 -3 -52 -7
-63 -31 -81 -27 -20 -39 -21 -270 -20 -324 2 -367 15 -367 109 0 51 22 81 67
91 16 3 33 7 38 9 6 2 126 3 268 2 l259 -2 19 -24z"/>
<path d="M0 647 c0 -32 50 -117 93 -159 95 -92 221 -124 557 -138 286 -13
3109 -33 3710 -27 527 5 563 9 653 70 57 39 127 137 97 137 -6 0 -10 -5 -10
-11 0 -20 -47 -79 -91 -113 -32 -24 -68 -39 -124 -52 -77 -18 -152 -19 -1835
-16 -1848 3 -2521 15 -2700 47 -161 29 -265 100 -321 218 -16 34 -29 54 -29
44z"/>
</g>
</svg>
