<?xml version="1.0" standalone="no"?>
<!DOCTYPE svg PUBLIC "-//W3C//DTD SVG 20010904//EN"
 "http://www.w3.org/TR/2001/REC-SVG-20010904/DTD/svg10.dtd">
<svg version="1.0" xmlns="http://www.w3.org/2000/svg"
 width="128.000000pt" height="128.000000pt" viewBox="0 0 128.000000 128.000000"
 preserveAspectRatio="xMidYMid meet">
<metadata>
Created by potrace 1.16, written by Peter Selinger 2001-2019
</metadata>
<g transform="translate(0.000000,128.000000) scale(0.100000,-0.100000)"
fill="none" stroke="#000000">

<path d="M263 1152 l-243 -127 0 -380 0 -380 78 -40 c42 -22 157 -82 255 -133
97 -51 177 -90 177 -85 0 4 -113 67 -250 138 l-250 130 0 370 0 370 245 128
c135 71 245 130 245 133 0 10 -28 -3 -257 -124z"/>

<path d="M750 1276 c0 -2 110 -62 245 -133 l245 -128 0 -370 0 -370 -250 -130
c-137 -71 -250 -134 -250 -138 0 -5 84 36 188 90 103 53 217 113 254 133 l68
35 0 380 0 380 -243 128 c-231 120 -257 133 -257 123z"/>

<path d="M368 1107 c-137 -72 -248 -136 -248 -142 0 -14 505 -278 524 -273 32
7 506 263 506 273 0 14 -494 275 -518 274 -9 0 -128 -60 -264 -132z m522 -9
c137 -72 249 -133 247 -134 -11 -10 -501 -264 -506 -262 -4 2 -118 61 -254
133 -226 119 -245 131 -224 142 160 86 474 252 479 252 4 1 120 -58 258 -131z"/>

<path d="M94 927 c-2 -7 -3 -144 -2 -306 l3 -293 254 -134 c140 -74 259 -133
264 -131 11 3 10 598 -2 610 -9 9 -457 246 -489 258 -16 6 -24 5 -28 -4z m271
-136 l240 -127 5 -289 c3 -160 3 -293 0 -296 -3 -3 -117 53 -255 126 l-250
133 -3 291 c-2 230 0 291 10 290 7 0 121 -58 253 -128z"/>

<path d="M908 803 l-258 -135 0 -304 c0 -183 4 -304 9 -304 6 0 124 60 263
134 l253 133 3 299 c1 164 -1 301 -5 305 -5 4 -124 -53 -265 -128z m260 -174
l-3 -292 -140 -74 c-77 -40 -191 -100 -253 -133 l-112 -59 2 296 3 295 240
128 c132 70 246 128 253 129 10 1 12 -60 10 -290z"/>
</g>
</svg>
