<?xml version="1.0" standalone="no"?>
<!DOCTYPE svg PUBLIC "-//W3C//DTD SVG 20010904//EN"
 "http://www.w3.org/TR/2001/REC-SVG-20010904/DTD/svg10.dtd">
<svg version="1.0" xmlns="http://www.w3.org/2000/svg"
 width="512.000000pt" height="512.000000pt" viewBox="0 0 512.000000 512.000000"
 preserveAspectRatio="xMidYMid meet">
<metadata>
Created by potrace 1.16, written by Peter Selinger 2001-2019
</metadata>
<g transform="translate(0.000000,512.000000) scale(0.100000,-0.100000)"
fill="none" stroke="#000000">
<path d="M0 5027 l0 -94 44 43 c26 24 68 51 100 63 l57 21 2354 0 2354 0 58
-21 c37 -15 73 -38 105 -70 l48 -48 0 99 0 100 -2560 0 -2560 0 0 -93z"/>
<path d="M151 5028 c-34 -13 -73 -39 -103 -69 l-48 -48 0 -1909 0 -1909 48
-46 c61 -56 92 -72 167 -86 39 -7 338 -11 913 -11 849 0 855 0 891 21 l36 21
-28 -26 -28 -26 -868 0 c-585 0 -887 4 -926 11 -73 13 -105 29 -161 81 l-44
41 0 -537 0 -536 2560 0 2560 0 0 545 0 545 -37 -41 c-49 -54 -105 -85 -177
-98 -40 -7 -351 -11 -927 -11 l-868 0 -28 26 -28 26 36 -21 c36 -21 42 -21
889 -21 592 0 874 3 919 11 73 13 124 43 184 107 l37 41 0 1897 0 1896 -53 53
c-36 35 -73 59 -111 74 l-57 21 -2347 -1 -2347 0 -54 -21z m1783 -4279 c-25
-90 -58 -185 -71 -211 -33 -60 -111 -138 -172 -172 -94 -51 -138 -56 -484 -56
l-318 0 -24 -25 c-22 -21 -25 -33 -25 -90 0 -57 3 -69 25 -90 l24 -25 1666 0
1666 0 24 25 c22 21 25 33 25 90 0 57 -3 69 -25 90 l-24 25 -318 0 c-346 0
-390 5 -484 56 -61 34 -139 112 -172 172 -26 49 -121 366 -114 385 2 6 25 -66
51 -159 27 -93 60 -190 73 -216 33 -60 111 -138 172 -172 94 -51 138 -56 484
-56 l318 0 24 -25 c22 -21 25 -33 25 -100 0 -67 -3 -79 -25 -100 l-24 -25
-1676 0 -1676 0 -24 25 c-22 21 -25 33 -25 100 0 67 3 79 25 100 l24 25 318 0
c346 0 390 5 484 56 61 34 139 112 172 172 13 26 46 123 73 216 26 93 49 165
51 159 2 -6 -17 -84 -43 -174z"/>
</g>
</svg>
